<svg width="40" height="39" viewBox="0 0 40 39" fill="none" xmlns="http://www.w3.org/2000/svg">
<path d="M6.95135 18.2064C6.34384 18.2064 5.85135 18.6988 5.85135 19.3064C5.85135 19.9139 6.34384 20.4064 6.95135 20.4064L6.95135 18.2064ZM32.604 20.4064C33.2115 20.4064 33.704 19.9139 33.704 19.3064C33.704 18.6988 33.2115 18.2064 32.604 18.2064L32.604 20.4064ZM26.9652 10.5086C26.5337 10.081 25.8372 10.0841 25.4096 10.5156C24.9819 10.9471 24.985 11.6435 25.4165 12.0712L26.9652 10.5086ZM29.0174 14.0913L28.2431 14.8726L29.0174 14.0913ZM29.0174 24.5214L28.2431 23.7401L29.0174 24.5214ZM25.4165 26.5415C24.985 26.9692 24.9819 27.6657 25.4096 28.0972C25.8372 28.5286 26.5337 28.5317 26.9652 28.1041L25.4165 26.5415ZM32.5721 18.804L33.6633 18.6649L33.6633 18.6649L32.5721 18.804ZM32.5721 19.8087L33.6633 19.9478L33.6633 19.9478L32.5721 19.8087ZM6.95135 20.4064L32.604 20.4064L32.604 18.2064L6.95135 18.2064L6.95135 20.4064ZM25.4165 12.0712L28.2431 14.8726L29.7917 13.3101L26.9652 10.5086L25.4165 12.0712ZM28.2431 23.7401L25.4165 26.5415L26.9652 28.1041L29.7917 25.3026L28.2431 23.7401ZM28.2431 14.8726C29.3885 16.0079 30.1804 16.7951 30.7173 17.4637C31.2403 18.1149 31.4304 18.5462 31.4809 18.9431L33.6633 18.6649C33.5403 17.7003 33.0801 16.8923 32.4326 16.0861C31.7991 15.2973 30.9004 14.4089 29.7917 13.3101L28.2431 14.8726ZM29.7917 25.3026C30.9004 24.2038 31.7991 23.3154 32.4326 22.5266C33.0801 21.7204 33.5403 20.9124 33.6633 19.9478L31.4809 19.6696C31.4304 20.0666 31.2403 20.4978 30.7173 21.149C30.1804 21.8176 29.3885 22.6048 28.2431 23.7401L29.7917 25.3026ZM31.4809 18.9431C31.5117 19.1843 31.5117 19.4284 31.4809 19.6696L33.6633 19.9478C33.7176 19.5219 33.7176 19.0908 33.6633 18.6649L31.4809 18.9431Z" fill="black"/>
</svg>
